<svg width="48" height="48" viewBox="0 0 48 48" fill="none" xmlns="http://www.w3.org/2000/svg">
<path d="M4.70928 18.8054C5.14694 18.0008 5.98951 17.5 6.90538 17.5H36.6297C37.5841 17.5 38.4553 18.0435 38.875 18.9007L40.8334 22.9007C41.6465 24.5617 40.4373 26.5 38.588 26.5H4.72946C2.83306 26.5 1.62716 24.4712 2.53336 22.8054L4.70928 18.8054Z" stroke="#152C5B" stroke-width="3"/>
<mask id="path-2-inside-1" fill="white">
<path d="M7.99994 45.0222C5.79083 45.0098 4.01009 43.2089 4.02254 40.9998L4.10143 27C4.10454 26.4477 4.55477 26.0025 5.10705 26.0056L11.107 26.0394C11.6592 26.0426 12.1044 26.4928 12.1013 27.0451L12.0224 41.0448C12.01 43.2539 10.209 45.0347 7.99994 45.0222Z"/>
</mask>
<path d="M7.99994 45.0222C5.79083 45.0098 4.01009 43.2089 4.02254 40.9998L4.10143 27C4.10454 26.4477 4.55477 26.0025 5.10705 26.0056L11.107 26.0394C11.6592 26.0426 12.1044 26.4928 12.1013 27.0451L12.0224 41.0448C12.01 43.2539 10.209 45.0347 7.99994 45.0222Z" stroke="#152C5B" stroke-width="6" mask="url(#path-2-inside-1)"/>
<mask id="path-3-inside-2" fill="white">
<path d="M34.9999 45.0222C32.7908 45.0098 31.0101 43.2089 31.0225 40.9998L31.1014 27C31.1045 26.4477 31.5548 26.0025 32.107 26.0056L38.107 26.0394C38.6592 26.0426 39.1044 26.4928 39.1013 27.0451L39.0224 41.0448C39.01 43.2539 37.209 45.0347 34.9999 45.0222Z"/>
</mask>
<path d="M34.9999 45.0222C32.7908 45.0098 31.0101 43.2089 31.0225 40.9998L31.1014 27C31.1045 26.4477 31.5548 26.0025 32.107 26.0056L38.107 26.0394C38.6592 26.0426 39.1044 26.4928 39.1013 27.0451L39.0224 41.0448C39.01 43.2539 37.209 45.0347 34.9999 45.0222Z" stroke="#152C5B" stroke-width="6" mask="url(#path-3-inside-2)"/>
<path d="M14 11.5L14 17" stroke="#152C5B" stroke-width="3" stroke-linecap="round"/>
<mask id="path-5-inside-3" fill="white">
<path d="M13.9999 13.0224C11.7908 13.0099 10.0101 11.209 10.0225 8.99991L10.0507 3.99999C10.0538 3.44771 10.5041 3.00253 11.0563 3.00564L17.0562 3.03945C17.6085 3.04256 18.0537 3.49279 18.0506 4.04507L18.0224 9.04499C18.01 11.2541 16.209 13.0348 13.9999 13.0224Z"/>
</mask>
<path d="M13.9999 13.0224C11.7908 13.0099 10.0101 11.209 10.0225 8.99991L10.0507 3.99999C10.0538 3.44771 10.5041 3.00253 11.0563 3.00564L17.0562 3.03945C17.6085 3.04256 18.0537 3.49279 18.0506 4.04507L18.0224 9.04499C18.01 11.2541 16.209 13.0348 13.9999 13.0224Z" stroke="#FF498B" stroke-width="6" mask="url(#path-5-inside-3)"/>
<path d="M28 11.5L28 17" stroke="#152C5B" stroke-width="3" stroke-linecap="round"/>
<mask id="path-7-inside-4" fill="white">
<path d="M27.9999 13.0224C25.7908 13.0099 24.0101 11.209 24.0225 8.99991L24.0507 3.99999C24.0538 3.44771 24.5041 3.00253 25.0563 3.00564L31.0562 3.03945C31.6085 3.04256 32.0537 3.49279 32.0506 4.04507L32.0224 9.04499C32.01 11.2541 30.209 13.0348 27.9999 13.0224Z"/>
</mask>
<path d="M27.9999 13.0224C25.7908 13.0099 24.0101 11.209 24.0225 8.99991L24.0507 3.99999C24.0538 3.44771 24.5041 3.00253 25.0563 3.00564L31.0562 3.03945C31.6085 3.04256 32.0537 3.49279 32.0506 4.04507L32.0224 9.04499C32.01 11.2541 30.209 13.0348 27.9999 13.0224Z" stroke="#FF498B" stroke-width="6" mask="url(#path-7-inside-4)"/>
</svg>
