<svg width="48" height="48" viewBox="0 0 48 48" fill="none" xmlns="http://www.w3.org/2000/svg">
<path d="M1.5 8C1.5 6.61929 2.61929 5.5 4 5.5H44C45.3807 5.5 46.5 6.61929 46.5 8V24C46.5 24.2761 46.2761 24.5 46 24.5H2C1.72386 24.5 1.5 24.2761 1.5 24V8Z" stroke="#152C5B" stroke-width="3"/>
<path d="M45 18L1 18.0033" stroke="#152C5B" stroke-width="3" stroke-linecap="round"/>
<path d="M20 12H29" stroke="#FF498B" stroke-width="3" stroke-linecap="round"/>
<path d="M41.5 29L41.1908 29.3092C37.6468 32.8532 37.2738 38.4734 40.3183 42.4547L41.5 44" stroke="#152C5B" stroke-width="3" stroke-linecap="round"/>
<path d="M34.5 29L34.1908 29.3092C30.6468 32.8532 30.2738 38.4734 33.3183 42.4547L34.5 44" stroke="#152C5B" stroke-width="3" stroke-linecap="round"/>
<path d="M6 29L6.30916 29.3092C9.8532 32.8532 10.2262 38.4734 7.18168 42.4547L6 44" stroke="#152C5B" stroke-width="3" stroke-linecap="round"/>
<path d="M13 29L13.3092 29.3092C16.8532 32.8532 17.2262 38.4734 14.1817 42.4547L13 44" stroke="#152C5B" stroke-width="3" stroke-linecap="round"/>
</svg>
