<svg width="48" height="48" viewBox="0 0 48 48" fill="none" xmlns="http://www.w3.org/2000/svg">
<path d="M12.5 20C12.5 18.6193 13.6193 17.5 15 17.5H19C20.3807 17.5 21.5 18.6193 21.5 20V26.5H12.5V20Z" stroke="#FF498B" stroke-width="3"/>
<path d="M25.5 20C25.5 18.6193 26.6193 17.5 28 17.5H32C33.3807 17.5 34.5 18.6193 34.5 20V26.5H25.5V20Z" stroke="#FF498B" stroke-width="3"/>
<path d="M7.5 12C7.5 7.30558 11.3056 3.5 16 3.5H31C35.6944 3.5 39.5 7.30558 39.5 12V26.5H7.5V12Z" stroke="#152C5B" stroke-width="3"/>
<path d="M1.5 29C1.5 27.6193 2.61929 26.5 4 26.5H44C45.3807 26.5 46.5 27.6193 46.5 29V36C46.5 36.2761 46.2761 36.5 46 36.5H2C1.72386 36.5 1.5 36.2761 1.5 36V29Z" stroke="#152C5B" stroke-width="3"/>
<path d="M41 41L6 41.003" stroke="#152C5B" stroke-width="3" stroke-linecap="round"/>
<path d="M7 37L5 45" stroke="#152C5B" stroke-width="3" stroke-linecap="round"/>
<path d="M40 37L43 45" stroke="#152C5B" stroke-width="3" stroke-linecap="round"/>
</svg>
