<svg width="48" height="48" viewBox="0 0 48 48" fill="none" xmlns="http://www.w3.org/2000/svg">
<path d="M30.5 40.5C30.5 41.6457 29.4516 43.1445 26.6771 44.4451C24.0221 45.6896 20.2488 46.5 16 46.5C11.7512 46.5 7.97793 45.6896 5.32294 44.4451C2.54839 43.1445 1.5 41.6457 1.5 40.5C1.5 39.3543 2.54839 37.8555 5.32294 36.5549C7.97793 35.3104 11.7512 34.5 16 34.5C20.2488 34.5 24.0221 35.3104 26.6771 36.5549C29.4516 37.8555 30.5 39.3543 30.5 40.5Z" stroke="#152C5B" stroke-width="3"/>
<path d="M27.5 13.7143C27.5 17.2451 26.0545 23.9932 23.6567 29.8818C22.4625 32.8145 21.0729 35.4301 19.5848 37.2849C18.057 39.1893 16.6669 40 15.5 40C14.3331 40 12.943 39.1893 11.4152 37.2849C9.9271 35.4301 8.53747 32.8145 7.3433 29.8818C4.9455 23.9932 3.5 17.2451 3.5 13.7143C3.5 6.94616 8.89476 1.5 15.5 1.5C22.1052 1.5 27.5 6.94616 27.5 13.7143Z" fill="white" stroke="#152C5B" stroke-width="3"/>
<circle cx="16" cy="12.7143" r="4.5" stroke="#FF498B" stroke-width="3"/>
</svg>
