<svg width="48" height="48" viewBox="0 0 48 48" fill="none" xmlns="http://www.w3.org/2000/svg">
<path d="M41 22L41 9.60107C41 9.04656 40.7698 8.51693 40.3643 8.13866L38.3643 6.27281C37.596 5.55602 36.404 5.55602 35.6357 6.27281L33 8.73171" stroke="#FF498B" stroke-width="3" stroke-linecap="round"/>
<path d="M1.5 25C1.5 23.6193 2.61929 22.5 4 22.5H44C45.3807 22.5 46.5 23.6193 46.5 25V27C46.5 28.3807 45.3807 29.5 44 29.5H4C2.61929 29.5 1.5 28.3807 1.5 27V25Z" stroke="#152C5B" stroke-width="3"/>
<path d="M11 43L11 46" stroke="#152C5B" stroke-width="3" stroke-linecap="round"/>
<path d="M37 43L37 46" stroke="#152C5B" stroke-width="3" stroke-linecap="round"/>
<path d="M5.5 29.5H42.5V39C42.5 40.933 40.933 42.5 39 42.5H9C7.067 42.5 5.5 40.933 5.5 39V29.5Z" stroke="#152C5B" stroke-width="3"/>
</svg>
