<svg width="48" height="48" viewBox="0 0 48 48" fill="none" xmlns="http://www.w3.org/2000/svg">
<rect width="48" height="48" fill="white"/>
<mask id="path-1-inside-1" fill="white">
<path fill-rule="evenodd" clip-rule="evenodd" d="M18.2997 7C17.5094 7 16.7931 7.46547 16.4721 8.18772L15.2222 11H8C3.58172 11 0 14.5817 0 19V33C0 37.4183 3.58172 41 8 41H40C44.4183 41 48 37.4183 48 33V19C48 14.5817 44.4183 11 40 11H32.7778L31.5279 8.18772C31.2069 7.46547 30.4906 7 29.7003 7H18.2997Z"/>
</mask>
<path d="M16.4721 8.18772L13.7307 6.96931L13.7307 6.96931L16.4721 8.18772ZM15.2222 11V14H17.1718L17.9637 12.2184L15.2222 11ZM32.7778 11L30.0363 12.2184L30.8282 14H32.7778V11ZM31.5279 8.18772L34.2693 6.96931V6.96931L31.5279 8.18772ZM19.2136 9.40614C19.0531 9.76726 18.6949 10 18.2997 10V4C16.3238 4 14.5332 5.16367 13.7307 6.96931L19.2136 9.40614ZM17.9637 12.2184L19.2136 9.40614L13.7307 6.96931L12.4808 9.78158L17.9637 12.2184ZM8 14H15.2222V8H8V14ZM3 19C3 16.2386 5.23858 14 8 14V8C1.92487 8 -3 12.9249 -3 19H3ZM3 33V19H-3V33H3ZM8 38C5.23858 38 3 35.7614 3 33H-3C-3 39.0751 1.92487 44 8 44V38ZM40 38H8V44H40V38ZM45 33C45 35.7614 42.7614 38 40 38V44C46.0751 44 51 39.0751 51 33H45ZM45 19V33H51V19H45ZM40 14C42.7614 14 45 16.2386 45 19H51C51 12.9249 46.0751 8 40 8V14ZM32.7778 14H40V8H32.7778V14ZM28.7864 9.40614L30.0363 12.2184L35.5192 9.78158L34.2693 6.96931L28.7864 9.40614ZM29.7003 10C29.3051 10 28.9469 9.76727 28.7864 9.40614L34.2693 6.96931C33.4668 5.16367 31.6762 4 29.7003 4V10ZM18.2997 10H29.7003V4H18.2997V10Z" fill="#152C5B" mask="url(#path-1-inside-1)"/>
<path d="M41 18L35 18.003" stroke="#152C5B" stroke-width="3" stroke-linecap="round"/>
<circle cx="24" cy="26" r="6.5" stroke="#FF498B" stroke-width="3"/>
</svg>
