<svg width="48" height="48" viewBox="0 0 48 48" fill="none" xmlns="http://www.w3.org/2000/svg">
<path d="M44.4859 27.341C44.4922 30.9309 41.5872 33.8479 37.9974 33.8564L8.99745 33.9249C5.40761 33.9334 2.49234 31.0302 2.48601 27.4403L2.4578 11.4403C2.45148 7.85049 5.35649 4.93347 8.94633 4.92498L37.9462 4.85642C41.5361 4.84793 44.4514 7.75119 44.4577 11.341L44.4859 27.341Z" stroke="#152C5B" stroke-width="3"/>
<path d="M20.0006 41.3375L20.0006 34.3375" stroke="#152C5B" stroke-width="3" stroke-linecap="round"/>
<path d="M28.0006 41.3375L28.0006 34.3375" stroke="#152C5B" stroke-width="3" stroke-linecap="round"/>
<path d="M34.0006 42.3375L13.0006 42.3375" stroke="#152C5B" stroke-width="3" stroke-linecap="round"/>
<path d="M29.25 19.067C29.5833 19.2594 29.5833 19.7406 29.25 19.933L21 24.6962C20.6667 24.8886 20.25 24.648 20.25 24.2631V14.7369C20.25 14.352 20.6667 14.1114 21 14.3038L29.25 19.067Z" stroke="#FF498B" stroke-width="3"/>
</svg>
