<svg width="48" height="48" viewBox="0 0 48 48" fill="none" xmlns="http://www.w3.org/2000/svg">
<path d="M34.6739 35.0415C33.6338 29.9074 28.0489 26.706 22.1997 27.891C18.3946 28.6619 15.415 31.0992 14.0835 34.1221" stroke="#152C5B" stroke-width="3" stroke-linecap="round"/>
<path d="M41.0084 28.7482C39.3676 20.6491 30.5573 15.5988 21.33 17.4682C15.3273 18.6843 10.6269 22.5293 8.5265 27.2979" stroke="#152C5B" stroke-width="3" stroke-linecap="round"/>
<path d="M45.7221 21.3521C43.5569 10.6642 31.9305 3.99979 19.7541 6.46667C11.8327 8.07148 5.6299 13.1454 2.8582 19.4382" stroke="#152C5B" stroke-width="3" stroke-linecap="round"/>
<path d="M28.5 40.5C28.5 42.9853 26.4853 45 24 45C21.5147 45 19.5 42.9853 19.5 40.5C19.5 38.0147 21.5147 36 24 36C26.4853 36 28.5 38.0147 28.5 40.5Z" stroke="#FF498B" stroke-width="3"/>
</svg>
