<svg width="30" height="28" viewBox="0 0 30 28" fill="none" xmlns="http://www.w3.org/2000/svg">
<path d="M14.0309 0.760911C14.3303 -0.160399 15.6337 -0.160398 15.9331 0.760913L18.6303 9.06234C18.7642 9.47436 19.1482 9.75332 19.5814 9.75332H28.31C29.2788 9.75332 29.6815 10.9929 28.8978 11.5623L21.8362 16.6929C21.4857 16.9475 21.3391 17.3989 21.4729 17.8109L24.1702 26.1124C24.4696 27.0337 23.4151 27.7998 22.6314 27.2304L15.5698 22.0998C15.2193 21.8452 14.7447 21.8452 14.3942 22.0998L7.3326 27.2304C6.54888 27.7998 5.4944 27.0337 5.79376 26.1124L8.49105 17.8109C8.62493 17.3989 8.47827 16.9475 8.12778 16.6929L1.06617 11.5623C0.282452 10.9929 0.685229 9.75332 1.65395 9.75332H10.3826C10.8158 9.75332 11.1998 9.47436 11.3336 9.06234L14.0309 0.760911Z" fill="#FFCC47"/>
</svg>
